<svg width="25" height="21" viewBox="0 0 25 21" fill="none" xmlns="http://www.w3.org/2000/svg">
<path d="M12.5092 17.3376C10.0756 17.3376 7.64178 17.3376 5.20774 17.3376C4.74571 17.3376 4.74501 17.3376 4.7436 17.809C4.7436 18.2925 4.74994 18.7752 4.7436 19.2587C4.73513 19.8425 4.34647 20.2256 3.76523 20.232C3.47109 20.2355 3.17694 20.2391 2.8835 20.232C2.33189 20.2165 1.9792 19.8744 1.9665 19.323C1.9524 18.7222 1.97497 18.1214 1.94746 17.5206C1.94041 17.3793 1.82966 17.1672 1.71045 17.1142C0.589597 16.6046 0.0436309 15.7098 0.0147102 14.5188C-0.0149159 13.3073 -0.000102896 12.0916 0.0619708 10.8843C0.140974 9.36677 0.932413 8.25141 2.18658 7.45483C2.29169 7.39585 2.3828 7.31477 2.45367 7.21716C2.52454 7.11956 2.57347 7.00773 2.59712 6.88937C2.87927 5.63759 3.15507 4.38511 3.46051 3.14323C3.84917 1.5543 4.79086 0.484171 6.41888 0.115212C6.77457 0.0398067 7.13738 0.00330959 7.50094 0.00636138C10.781 -0.00212046 14.0615 -0.00212046 17.3424 0.00636138C18.7461 0.00636138 19.9467 0.455192 20.7769 1.66527C21.263 2.37209 21.4273 3.19412 21.6093 4.0112C21.8209 4.96399 22.029 5.91961 22.2674 6.86605C22.3266 7.04873 22.4499 7.20369 22.6145 7.30215C24.1508 8.18426 24.9704 9.48976 24.9902 11.2731C25.0022 12.3807 25.0043 13.4889 24.9902 14.5951C24.9747 15.726 24.4471 16.5516 23.4334 17.0393C23.1647 17.1686 23.0737 17.322 23.0807 17.6048C23.0984 18.1469 23.0906 18.689 23.085 19.2304C23.0786 19.8418 22.7026 20.22 22.0974 20.2334C21.8385 20.2384 21.5797 20.2334 21.3215 20.2334C20.6429 20.2292 20.3107 19.8984 20.3022 19.2099C20.2959 18.7385 20.2846 18.2663 20.3072 17.7963C20.3241 17.4429 20.2084 17.3277 19.8465 17.3298C17.4003 17.3446 14.954 17.3376 12.5092 17.3376ZM22.0551 15.4829C22.8508 15.4829 23.1837 15.1726 23.1922 14.3824C23.2042 13.4048 23.1992 12.4266 23.1922 11.4491C23.1823 9.68202 21.8689 8.60765 20.31 8.62179C15.057 8.66702 9.79978 8.63733 4.54891 8.64016C2.99284 8.64016 1.86422 9.77532 1.85435 11.3402C1.84871 12.3298 1.85435 13.3193 1.85435 14.3089C1.85435 15.179 2.15343 15.4829 3.014 15.4829H22.0551ZM12.4294 6.78476C14.9119 6.78476 17.3923 6.78476 19.8705 6.78476C20.3445 6.78476 20.3523 6.77487 20.2444 6.30271C20.0328 5.38384 19.8268 4.46498 19.6095 3.55106C19.3457 2.43146 18.6375 1.86035 17.5019 1.85469C15.8795 1.84975 14.2571 1.85469 12.6347 1.85469C10.848 1.85469 9.06124 1.85045 7.2738 1.85823C6.26511 1.86176 5.52798 2.4463 5.29027 3.42595C5.05538 4.38582 4.83318 5.34921 4.60746 6.31119C4.49671 6.77416 4.50588 6.78476 4.98836 6.78476H12.4294Z" fill="#004278"/>
<path d="M19.9856 12.9574C19.8334 12.9605 19.6821 12.9331 19.5407 12.8767C19.3992 12.8203 19.2705 12.7361 19.162 12.6291C19.0535 12.5221 18.9675 12.3944 18.909 12.2536C18.8504 12.1128 18.8206 11.9616 18.8213 11.8091C18.822 11.6566 18.8531 11.5057 18.9128 11.3654C18.9725 11.2251 19.0596 11.0981 19.1691 10.9921C19.2785 10.886 19.4079 10.803 19.5499 10.7478C19.6918 10.6926 19.8433 10.6665 19.9955 10.6709C20.2972 10.6713 20.5869 10.7898 20.8028 11.001C21.0187 11.2122 21.1439 11.4995 21.1516 11.8018C21.1615 12.428 20.6289 12.9567 19.9856 12.9574Z" fill="#004278"/>
<path d="M6.16712 11.8146C6.16712 12.4917 5.6924 12.9617 5.01382 12.9575C4.71613 12.9501 4.43312 12.8264 4.22519 12.6128C4.01726 12.3992 3.90088 12.1126 3.90088 11.8142C3.90088 11.5158 4.01726 11.2292 4.22519 11.0157C4.43312 10.8021 4.71613 10.6783 5.01382 10.6709C5.6924 10.6667 6.16712 11.1381 6.16712 11.8146Z" fill="#004278"/>
</svg>
