<svg width="14" height="22" viewBox="0 0 14 22" fill="none" xmlns="http://www.w3.org/2000/svg">
<path d="M5.89775 7.75548C5.61532 7.85539 5.36667 7.94231 5.12159 8.03623C4.73274 8.1861 4.34543 8.33947 3.95914 8.49434C3.47001 8.69117 3.12926 9.03337 2.91386 9.50347C2.72762 9.91012 2.5361 10.3143 2.33929 10.7159C2.22519 10.9497 2.0497 11.1361 1.79644 11.22C1.12056 11.4428 0.363846 10.9702 0.350543 10.3153C0.34739 10.149 0.381257 9.98396 0.449802 9.83168C0.697947 9.29315 0.944046 8.75112 1.23517 8.23306C1.60798 7.55394 2.20214 7.01564 2.92358 6.70338C3.72174 6.35818 4.53678 6.04495 5.36206 5.76819C6.34134 5.43948 7.35746 5.35505 8.37511 5.57236C9.52016 5.81665 10.4375 6.41763 11.1267 7.34883C11.411 7.74508 11.6317 8.1814 11.7811 8.64271C11.9469 9.1238 12.1055 9.60788 12.2789 10.0865C12.3217 10.2028 12.3892 10.309 12.4769 10.3982C12.8699 10.7919 13.2643 11.184 13.6737 11.5612C14.262 12.1027 14.0016 12.9645 13.3155 13.2517C12.8868 13.4306 12.5102 13.3392 12.1868 13.0354C11.7478 12.6223 11.3196 12.1986 10.8914 11.775C10.6107 11.4932 10.4018 11.151 10.2815 10.7759C10.0963 10.2263 9.91157 9.67682 9.71049 9.13229C9.63221 8.92047 9.51044 8.72414 9.40811 8.52082L9.35695 8.53131C9.34313 8.57527 9.32676 8.61873 9.31499 8.66369C8.95957 10.0525 8.6033 11.441 8.24618 12.8291C8.23159 12.8692 8.23031 12.9128 8.24252 12.9537C8.25474 12.9946 8.27982 13.0307 8.31423 13.0569C9.06224 13.7263 9.80804 14.3979 10.5516 15.0717C11.1376 15.5959 11.544 16.2837 11.7156 17.0415C11.9902 18.2214 12.267 19.4018 12.546 20.5824C12.678 21.1469 12.4038 21.6585 11.8563 21.8218C11.2705 21.9967 10.72 21.7219 10.5573 21.1804C10.3756 20.5784 10.2503 19.9599 10.1055 19.348C9.96427 18.756 9.82356 18.1645 9.689 17.571C9.59658 17.1531 9.3698 16.7751 9.04178 16.4919C8.28557 15.819 7.53756 15.1381 6.78596 14.4607C6.49432 14.1979 6.20576 13.9321 5.91003 13.6749C5.43052 13.2713 5.10845 12.7184 4.99828 12.1097C4.93947 11.7679 4.95692 11.4177 5.04945 11.0831C5.32232 10.0293 5.59264 8.97576 5.8604 7.92233C5.87217 7.87887 5.88035 7.83491 5.89775 7.75548Z" fill="#004278"/>
<path d="M4.15021 14.8604L4.77953 15.4289C5.08958 15.7086 5.40066 15.9869 5.70611 16.2706C5.72481 16.2894 5.73883 16.3122 5.74709 16.3372C5.75534 16.3621 5.7576 16.3886 5.75369 16.4145C5.55824 16.9071 5.3587 17.3982 5.15149 17.8862C4.95246 18.3538 4.64855 18.7535 4.2817 19.1102C3.46546 19.9095 2.64923 20.7076 1.83299 21.5046C1.51219 21.8178 1.13409 21.9267 0.698684 21.7804C0.0258775 21.5551 -0.228919 20.7173 0.238208 20.1937C0.604031 19.7831 1.01283 19.4094 1.40628 19.0228C1.88995 18.5472 2.37516 18.0732 2.8619 17.601C3.05541 17.4061 3.20495 17.1738 3.30089 16.9191C3.56285 16.273 3.82634 15.6275 4.09137 14.9827C4.10774 14.9453 4.12667 14.9093 4.15021 14.8604Z" fill="#004278"/>
<path d="M9.10098 4.09646C8.54463 4.09693 8.01088 3.88158 7.61714 3.49779C7.22341 3.114 7.00194 2.59321 7.00147 2.04998C7.00099 1.50676 7.22155 0.985596 7.61461 0.60115C8.00767 0.216704 8.54105 0.000463729 9.0974 0C10.2558 0 11.2069 0.917708 11.1992 2.04823C11.1998 2.31742 11.146 2.58407 11.0407 2.83287C10.9355 3.08168 10.7809 3.30773 10.586 3.49805C10.391 3.68837 10.1595 3.83921 9.90462 3.9419C9.64978 4.0446 9.37667 4.09712 9.10098 4.09646Z" fill="#004278"/>
</svg>
