<svg width="31" height="31" viewBox="0 0 31 31" fill="none" xmlns="http://www.w3.org/2000/svg">
<path d="M8.66797 22.332C10.5586 24.1797 12.8359 25.1035 15.5 25.1035C18.1641 25.1035 20.4199 24.1797 22.2676 22.332C24.1582 20.4414 25.1035 18.1641 25.1035 15.5C25.1035 12.8359 24.1582 10.5801 22.2676 8.73242C20.4199 6.8418 18.1641 5.89648 15.5 5.89648C12.8359 5.89648 10.5586 6.8418 8.66797 8.73242C6.82031 10.5801 5.89648 12.8359 5.89648 15.5C5.89648 18.1641 6.82031 20.4414 8.66797 22.332ZM27.8105 14.1465H30.6465V16.8535H27.8105C27.5098 19.5605 26.2852 21.9883 24.1367 24.1367C21.9883 26.2852 19.5605 27.5098 16.8535 27.8105V30.6465H14.1465V27.8105C11.4395 27.5098 9.01172 26.2852 6.86328 24.1367C4.71484 21.9883 3.49023 19.5605 3.18945 16.8535H0.353516V14.1465H3.18945C3.49023 11.4395 4.71484 9.01172 6.86328 6.86328C9.01172 4.71484 11.4395 3.49023 14.1465 3.18945V0.353516H16.8535V3.18945C19.5605 3.49023 21.9883 4.71484 24.1367 6.86328C26.2852 9.01172 27.5098 11.4395 27.8105 14.1465ZM11.6328 11.6328C12.707 10.5586 13.9961 10.0215 15.5 10.0215C17.0039 10.0215 18.293 10.5586 19.3672 11.6328C20.4414 12.707 20.9785 13.9961 20.9785 15.5C20.9785 17.0039 20.4414 18.293 19.3672 19.3672C18.293 20.4414 17.0039 20.9785 15.5 20.9785C13.9961 20.9785 12.707 20.4414 11.6328 19.3672C10.5586 18.293 10.0215 17.0039 10.0215 15.5C10.0215 13.9961 10.5586 12.707 11.6328 11.6328Z" fill="#005999"/>
</svg>
