<svg width="96" height="96" viewBox="0 0 96 96" fill="none" xmlns="http://www.w3.org/2000/svg">
<g id="ic_stack">
<path id="Shape" fill-rule="evenodd" clip-rule="evenodd" d="M48.725 0.246221C48.4764 0.17046 48.2212 0.0926739 47.9632 0C47.7192 0.093301 47.4718 0.176015 47.2262 0.258158C46.6977 0.434904 46.1771 0.609003 45.7147 0.880223C31.188 9.4241 16.6705 17.9803 2.16211 26.5488C-0.720704 28.2509 -0.720704 31.9061 2.16211 33.6101C16.7044 42.189 31.2466 50.7673 45.7888 59.3449C47.2703 60.2193 48.7341 60.2174 50.2155 59.3449C64.7643 50.779 79.3065 42.202 93.8423 33.614C96.7153 31.9139 96.7231 28.2509 93.8423 26.5488C79.2805 17.944 64.707 9.35724 50.1219 0.788695C49.705 0.54488 49.2286 0.399707 48.725 0.246221ZM83.8636 29.9737C83.9141 30.0126 83.9726 30.0576 84.0442 30.1106L72.5344 36.8954C64.6153 41.5587 56.7007 46.2273 48.7907 50.901C48.3203 51.1776 47.9534 51.3567 47.3854 51.0218C35.7032 44.1189 24.0132 37.2206 12.3154 30.3268C12.2621 30.2946 12.2134 30.2561 12.1455 30.2024C12.1066 30.1715 12.0613 30.1357 12.0051 30.0931C12.0819 30.0391 12.1552 29.9856 12.2268 29.9333C12.3825 29.8195 12.5298 29.712 12.6862 29.6199C24.2435 22.8105 35.7963 15.9966 47.3444 9.17808C47.7582 8.93465 48.0744 8.82755 48.5643 9.11771C60.2517 16.0219 71.9411 22.9189 83.6324 29.8088C83.7035 29.8506 83.7696 29.9015 83.8636 29.9737Z" fill="#004278"/>
<path id="Path" fill-rule="evenodd" clip-rule="evenodd" d="M95.9997 52.154C95.9567 53.7181 95.1442 54.779 93.74 55.5475C87.5178 58.9506 81.3034 62.3647 75.0968 65.7896C66.9508 70.2676 58.7932 74.7256 50.6707 79.2326C48.8524 80.2427 47.2158 80.2627 45.382 79.2508C31.0405 71.3339 16.686 63.4383 2.31845 55.5638C-0.780951 53.8598 -0.749703 50.5608 2.27353 48.7551C3.52149 48.0103 4.4062 47.9976 5.71666 48.7242C19.536 56.3958 33.4062 63.9839 47.251 71.6137C47.8369 71.9425 48.2529 71.8953 48.8134 71.5865C62.884 63.8355 76.958 56.0882 91.0351 48.3446C91.7363 47.9594 92.2733 47.8214 92.9393 48.3318C93.3104 48.6171 93.783 48.786 94.1873 49.0385C95.3316 49.7142 96.0176 50.8934 95.9997 52.154Z" fill="#004278"/>
<path id="Path_2" fill-rule="evenodd" clip-rule="evenodd" d="M96 68.1999C95.9727 69.7031 95.1543 70.7678 93.7538 71.5357C88.1481 74.6065 82.5489 77.6875 76.9562 80.7789C68.2781 85.556 59.5726 90.3059 50.9374 95.1377C48.9198 96.266 47.1716 96.2988 45.1305 95.1668C30.9072 87.2831 16.6625 79.4328 2.3962 71.6158C2.14423 71.4775 1.89032 71.3374 1.65398 71.179C0.66365 70.5101 0.0557866 69.4562 0.00364631 68.3175C-0.048494 67.1789 0.460808 66.0805 1.38639 65.3354C3.29858 63.7976 3.84743 63.7412 6.00183 64.9278C19.7212 72.4766 33.436 80.0333 47.1462 87.5979C47.8025 87.9619 48.244 87.9292 48.8768 87.5797C62.9477 79.8149 77.0245 72.0544 91.1072 64.2981C91.7889 63.9214 92.3026 63.8741 92.9256 64.3163C93.3358 64.6093 93.8241 64.8058 94.2519 65.0806C95.4043 65.8213 95.9805 66.8587 96 68.1999Z" fill="#004278"/>
</g>
</svg>
