<svg width="24" height="20" viewBox="0 0 24 20" fill="none" xmlns="http://www.w3.org/2000/svg">
<path d="M11.9893 19.1909H0.386057C0.0960756 19.1909 0.000438702 19.0944 0 18.8031V18.4083C0 18.0907 0.0877403 18.0025 0.400973 18.0025H4.59013C4.82923 18.0025 4.80378 18.0284 4.80378 17.7941C4.80378 12.928 4.80378 8.06182 4.80378 3.19545C4.80378 2.83352 4.88757 2.50888 5.13939 2.23908C5.3095 2.06084 5.52802 1.93626 5.76805 1.88066C7.80128 1.35626 9.8354 0.830845 11.8704 0.304403C12.2213 0.213592 12.5697 0.119271 12.9211 0.0328467C13.6463 -0.142634 14.3688 0.407059 14.3907 1.15592C14.4004 1.5139 14.3938 1.87232 14.3947 2.23074C14.3947 2.38955 14.3947 2.38999 14.55 2.38999C15.6687 2.38999 16.7874 2.38999 17.906 2.38999C18.2829 2.38999 18.6194 2.49484 18.8808 2.78482C19.0922 3.01714 19.2053 3.32238 19.1963 3.63634C19.1945 6.00942 19.1945 8.38222 19.1963 10.7547C19.1963 13.1164 19.1963 15.4782 19.1963 17.8402C19.1963 18.0038 19.1963 18.0038 19.3669 18.0038H23.5894C23.6333 18.0038 23.6772 18.0038 23.721 18.0038C23.7952 18.005 23.866 18.0354 23.9178 18.0885C23.9697 18.1416 23.9984 18.213 23.9979 18.2872C24.0027 18.4702 23.9979 18.6527 23.9979 18.8356C23.9979 19.083 23.8921 19.1905 23.6469 19.1905C22.9011 19.1905 22.1553 19.1905 21.4095 19.1905L11.9893 19.1909ZM13.1979 1.19453C13.136 1.20769 13.0939 1.21515 13.0522 1.22611L6.16463 3.01207C6.00714 3.05331 6.0067 3.05287 6.0067 3.21431C6.0029 6.22293 5.99924 9.23154 5.99573 12.2402C5.99398 14.1081 5.99398 15.9763 5.99573 17.8446C5.99573 18.0016 5.99573 18.0021 6.15147 18.0021H13.0465C13.2054 18.0021 13.2054 18.0021 13.2054 17.8376C13.2054 12.343 13.2054 6.84822 13.2054 1.35334C13.2049 1.3064 13.201 1.2599 13.1979 1.19453ZM18.0065 10.8074C18.0065 8.45329 18.0065 6.09892 18.0065 3.74426C18.0065 3.58677 18.0065 3.58677 17.8512 3.58633H14.55C14.3951 3.58633 14.3947 3.58633 14.3947 3.74426C14.3947 8.44597 14.3947 13.1475 14.3947 17.849C14.3947 18.0012 14.3947 18.0016 14.5443 18.0016C15.6451 18.0016 16.7455 18.0016 17.8455 18.0016C18.0061 18.0016 18.0065 18.0016 18.0065 17.838V10.8074Z" fill="#004278"/>
<path d="M11.6928 9.5561C11.6928 9.91452 11.6051 10.2084 11.4077 10.4699C11.1216 10.8498 10.618 10.8968 10.2776 10.5642C9.99855 10.2922 9.89809 9.9461 9.90379 9.56706C9.90114 9.27975 9.98859 8.99884 10.1539 8.7638C10.5048 8.27728 11.0839 8.27377 11.4397 8.75503C11.6048 8.98947 11.6933 9.26933 11.6928 9.5561Z" fill="#004278"/>
</svg>
