<svg width="43" height="48" viewBox="0 0 43 48" fill="none" xmlns="http://www.w3.org/2000/svg">
<path d="M13.8682 31.0078L15.8994 25.1436H16.9248L14.2881 32.2529H13.458L10.8262 25.1436H11.8467L13.8682 31.0078ZM18.7217 32.2529H17.8184V26.9697H18.7217V32.2529ZM17.7451 25.5684C17.7451 25.4219 17.7891 25.2982 17.877 25.1973C17.9681 25.0964 18.1016 25.0459 18.2773 25.0459C18.4531 25.0459 18.5866 25.0964 18.6777 25.1973C18.7689 25.2982 18.8145 25.4219 18.8145 25.5684C18.8145 25.7148 18.7689 25.8369 18.6777 25.9346C18.5866 26.0322 18.4531 26.0811 18.2773 26.0811C18.1016 26.0811 17.9681 26.0322 17.877 25.9346C17.7891 25.8369 17.7451 25.7148 17.7451 25.5684ZM22.3643 32.3506C21.6481 32.3506 21.0654 32.1162 20.6162 31.6475C20.167 31.1755 19.9424 30.5456 19.9424 29.7578V29.5918C19.9424 29.0677 20.0417 28.6006 20.2402 28.1904C20.4421 27.777 20.722 27.4548 21.0801 27.2236C21.4414 26.9893 21.832 26.8721 22.252 26.8721C22.9388 26.8721 23.4727 27.0983 23.8535 27.5508C24.2344 28.0033 24.4248 28.651 24.4248 29.4941V29.8701H20.8457C20.8587 30.391 21.0101 30.8125 21.2998 31.1348C21.5928 31.4538 21.9639 31.6133 22.4131 31.6133C22.7321 31.6133 23.0023 31.5482 23.2236 31.418C23.445 31.2878 23.6387 31.1152 23.8047 30.9004L24.3564 31.3301C23.9137 32.0104 23.2497 32.3506 22.3643 32.3506ZM22.252 27.6143C21.8874 27.6143 21.5814 27.7477 21.334 28.0146C21.0866 28.2783 20.9336 28.6494 20.875 29.1279H23.5215V29.0596C23.4954 28.6006 23.3717 28.2458 23.1504 27.9951C22.929 27.7412 22.6296 27.6143 22.252 27.6143ZM30.1523 31.0078L31.168 26.9697H32.0713L30.5332 32.2529H29.8008L28.5166 28.249L27.2666 32.2529H26.5342L25.001 26.9697H25.8994L26.9395 30.9248L28.1699 26.9697H28.8975L30.1523 31.0078ZM9.74219 40.9277C9.74219 41.6243 9.625 42.2331 9.39062 42.7539C9.15625 43.2715 8.82422 43.667 8.39453 43.9404C7.96484 44.2139 7.46354 44.3506 6.89062 44.3506C6.33073 44.3506 5.83431 44.2139 5.40137 43.9404C4.96842 43.6637 4.63151 43.2715 4.39062 42.7637C4.15299 42.2526 4.03092 41.6618 4.02441 40.9912V40.4785C4.02441 39.7949 4.14323 39.1911 4.38086 38.667C4.61849 38.1429 4.95378 37.7425 5.38672 37.4658C5.82292 37.1859 6.32096 37.0459 6.88086 37.0459C7.45052 37.0459 7.95182 37.1842 8.38477 37.4609C8.82096 37.7344 9.15625 38.1331 9.39062 38.6572C9.625 39.1781 9.74219 39.7852 9.74219 40.4785V40.9277ZM8.80957 40.4688C8.80957 39.6257 8.6403 38.9795 8.30176 38.5303C7.96322 38.0778 7.48958 37.8516 6.88086 37.8516C6.28841 37.8516 5.82129 38.0778 5.47949 38.5303C5.14095 38.9795 4.9668 39.6045 4.95703 40.4053V40.9277C4.95703 41.7448 5.12793 42.3877 5.46973 42.8564C5.81478 43.3219 6.28841 43.5547 6.89062 43.5547C7.49609 43.5547 7.96484 43.335 8.29688 42.8955C8.62891 42.4528 8.7998 41.8197 8.80957 40.9961V40.4688ZM14.2686 43.7305C13.917 44.1439 13.401 44.3506 12.7207 44.3506C12.1576 44.3506 11.7279 44.1878 11.4316 43.8623C11.1387 43.5335 10.9906 43.0485 10.9873 42.4072V38.9697H11.8906V42.3828C11.8906 43.1836 12.2161 43.584 12.8672 43.584C13.5573 43.584 14.0163 43.3268 14.2441 42.8125V38.9697H15.1475V44.2529H14.2881L14.2686 43.7305ZM17.75 37.6904V38.9697H18.7363V39.668H17.75V42.9443C17.75 43.1559 17.7939 43.3154 17.8818 43.4229C17.9697 43.527 18.1195 43.5791 18.3311 43.5791C18.4352 43.5791 18.5785 43.5596 18.7607 43.5205V44.2529C18.5231 44.318 18.292 44.3506 18.0674 44.3506C17.6637 44.3506 17.3594 44.2285 17.1543 43.9844C16.9492 43.7402 16.8467 43.3936 16.8467 42.9443V39.668H15.8848V38.9697H16.8467V37.6904H17.75ZM19.5762 41.5674C19.5762 40.7568 19.7682 40.1058 20.1523 39.6143C20.5365 39.1195 21.0394 38.8721 21.6611 38.8721C22.2796 38.8721 22.7695 39.0837 23.1309 39.5068V36.7529H24.0342V44.2529H23.2041L23.1602 43.6865C22.7988 44.1292 22.2959 44.3506 21.6514 44.3506C21.0394 44.3506 20.5397 44.0999 20.1523 43.5986C19.7682 43.0973 19.5762 42.443 19.5762 41.6357V41.5674ZM20.4795 41.6699C20.4795 42.2689 20.6032 42.7376 20.8506 43.0762C21.098 43.4147 21.4398 43.584 21.876 43.584C22.4489 43.584 22.8672 43.3268 23.1309 42.8125V40.3857C22.8607 39.8877 22.4456 39.6387 21.8857 39.6387C21.443 39.6387 21.098 39.8096 20.8506 40.1514C20.6032 40.4932 20.4795 40.9993 20.4795 41.6699ZM25.2012 41.5625C25.2012 41.0449 25.3021 40.5794 25.5039 40.166C25.709 39.7526 25.9922 39.4336 26.3535 39.209C26.7181 38.9844 27.1331 38.8721 27.5986 38.8721C28.318 38.8721 28.8991 39.1211 29.3418 39.6191C29.7878 40.1172 30.0107 40.7796 30.0107 41.6064V41.6699C30.0107 42.1842 29.9115 42.6465 29.7129 43.0566C29.5176 43.4635 29.236 43.7809 28.8682 44.0088C28.5036 44.2367 28.0837 44.3506 27.6084 44.3506C26.8923 44.3506 26.3112 44.1016 25.8652 43.6035C25.4225 43.1055 25.2012 42.4463 25.2012 41.626V41.5625ZM26.1094 41.6699C26.1094 42.2559 26.2445 42.7262 26.5146 43.0811C26.7881 43.4359 27.1527 43.6133 27.6084 43.6133C28.0674 43.6133 28.432 43.4342 28.7021 43.0762C28.9723 42.7148 29.1074 42.2103 29.1074 41.5625C29.1074 40.9831 28.9691 40.5143 28.6924 40.1562C28.4189 39.7949 28.0544 39.6143 27.5986 39.6143C27.1527 39.6143 26.793 39.7917 26.5195 40.1465C26.2461 40.5013 26.1094 41.0091 26.1094 41.6699ZM30.9043 41.5625C30.9043 41.0449 31.0052 40.5794 31.207 40.166C31.4121 39.7526 31.6953 39.4336 32.0566 39.209C32.4212 38.9844 32.8363 38.8721 33.3018 38.8721C34.0212 38.8721 34.6022 39.1211 35.0449 39.6191C35.4909 40.1172 35.7139 40.7796 35.7139 41.6064V41.6699C35.7139 42.1842 35.6146 42.6465 35.416 43.0566C35.2207 43.4635 34.9391 43.7809 34.5713 44.0088C34.2067 44.2367 33.7868 44.3506 33.3115 44.3506C32.5954 44.3506 32.0143 44.1016 31.5684 43.6035C31.1257 43.1055 30.9043 42.4463 30.9043 41.626V41.5625ZM31.8125 41.6699C31.8125 42.2559 31.9476 42.7262 32.2178 43.0811C32.4912 43.4359 32.8558 43.6133 33.3115 43.6133C33.7705 43.6133 34.1351 43.4342 34.4053 43.0762C34.6755 42.7148 34.8105 42.2103 34.8105 41.5625C34.8105 40.9831 34.6722 40.5143 34.3955 40.1562C34.1221 39.7949 33.7575 39.6143 33.3018 39.6143C32.8558 39.6143 32.4961 39.7917 32.2227 40.1465C31.9492 40.5013 31.8125 41.0091 31.8125 41.6699ZM39.4004 39.7803C39.2637 39.7575 39.1156 39.7461 38.9561 39.7461C38.3636 39.7461 37.9616 39.9984 37.75 40.5029V44.2529H36.8467V38.9697H37.7256L37.7402 39.5801C38.0365 39.1081 38.4564 38.8721 39 38.8721C39.1758 38.8721 39.3092 38.8949 39.4004 38.9404V39.7803Z" fill="#004278"/>
<path d="M14.2898 9.88045C14.2898 6.91326 14.2898 3.94591 14.2898 0.978414C14.2898 0.527871 14.5415 0.173642 14.9578 0.0481567C15.0668 0.0165357 15.1799 0.000932618 15.2936 0.00185218C19.7615 -0.000617393 24.2301 -0.000617393 28.6993 0.00185218C29.3037 0.00185218 29.7064 0.404238 29.7064 1.0011C29.7064 6.93178 29.7064 12.8625 29.7064 18.7931C29.7064 19.0344 29.6805 19.0052 29.9289 19.0071C30.109 19.0071 30.2896 19.0071 30.4698 19.0071C30.799 19.0071 30.9872 19.1895 30.9971 19.5136C31.0018 19.7215 30.9942 19.9304 30.9999 20.1388C31.0022 20.2281 30.966 20.2499 30.8823 20.2494C30.459 20.2462 30.0356 20.2494 29.6123 20.2494H13.1962C13.1576 20.2547 13.1183 20.2536 13.08 20.2462C13.048 20.2346 13.0019 20.1999 13.0019 20.1753C13.0019 19.917 12.9921 19.6576 13.017 19.4011C13.04 19.1603 13.2282 19.0145 13.477 19.0098C13.6967 19.0057 13.9159 19.0098 14.1355 19.0098C14.2889 19.0098 14.2893 19.0098 14.2893 18.8557C14.2893 16.7951 14.2893 14.7347 14.2893 12.6745C14.2893 11.7416 14.2895 10.8102 14.2898 9.88045ZM28.4453 10.1328V1.4058C28.4453 1.24466 28.4453 1.24374 28.2835 1.24374C24.094 1.24374 19.9044 1.24374 15.7146 1.24374C15.5509 1.24374 15.5504 1.24374 15.5504 1.40303V18.8455C15.5504 19.0048 15.5504 19.0052 15.7122 19.0052H20.5684C20.725 19.0052 20.726 19.0052 20.726 18.8515C20.726 18.2032 20.726 17.555 20.726 16.9067C20.726 16.4858 20.7231 16.0653 20.7283 15.6449C20.7316 15.3592 20.9165 15.1661 21.1907 15.1633C21.7279 15.1582 22.2646 15.1596 22.8017 15.1633C22.9048 15.1613 23.0055 15.194 23.0872 15.256C23.1689 15.3179 23.2266 15.4055 23.2509 15.5041C23.266 15.5804 23.272 15.6581 23.2688 15.7357C23.2688 16.7618 23.2688 17.788 23.2688 18.8144C23.2688 19.0061 23.2688 19.0061 23.457 19.0061C25.0484 19.0061 26.6397 19.0061 28.2308 19.0061C28.4585 19.0061 28.4429 19.0325 28.4429 18.7918C28.4442 15.9051 28.445 13.0188 28.4453 10.1328Z" fill="#004278"/>
<path d="M20.6983 12.622C20.6983 12.8725 20.6983 13.123 20.6983 13.3735C20.6983 13.6879 20.5031 13.8764 20.1809 13.8768C19.6757 13.8768 19.1705 13.8768 18.6654 13.8768C18.3436 13.8768 18.1479 13.6814 18.1479 13.3624C18.1479 12.8651 18.1479 12.3678 18.1479 11.8705C18.1479 11.5556 18.3413 11.3667 18.6597 11.3662C19.1731 11.3662 19.6861 11.3662 20.1988 11.3662C20.4951 11.3662 20.6917 11.5574 20.6988 11.8478V12.622H20.6983Z" fill="#004278"/>
<path d="M24.5732 11.3654C24.8394 11.3654 25.1061 11.3654 25.3728 11.3654C25.4338 11.3639 25.4945 11.3744 25.5514 11.3962C25.6082 11.418 25.6601 11.4506 25.7041 11.4923C25.7481 11.5339 25.7833 11.5837 25.8077 11.6387C25.832 11.6938 25.845 11.7531 25.846 11.8131C25.8535 12.3489 25.8526 12.8851 25.846 13.4208C25.8458 13.5406 25.7975 13.6554 25.7117 13.7403C25.6259 13.8252 25.5095 13.8733 25.3879 13.8741C24.8438 13.8806 24.2994 13.8806 23.7547 13.8741C23.6331 13.873 23.517 13.8245 23.4317 13.7392C23.3464 13.6538 23.299 13.5387 23.2999 13.419C23.2939 12.8834 23.2939 12.3475 23.2999 11.8113C23.3032 11.5529 23.5087 11.3681 23.7735 11.3663C24.0384 11.3644 24.306 11.3663 24.5732 11.3663V11.3654Z" fill="#004278"/>
<path d="M19.4272 7.56625C19.6817 7.56625 19.9362 7.56625 20.1906 7.56625C20.5091 7.56903 20.6963 7.75147 20.6972 8.06218C20.6991 8.56319 20.6991 9.06421 20.6972 9.56522C20.6972 9.875 20.5142 10.0704 20.1996 10.0746C19.6822 10.0829 19.1647 10.082 18.6473 10.0746C18.3331 10.0704 18.1459 9.87361 18.145 9.56754C18.1431 9.07023 18.1431 8.57291 18.145 8.0756C18.145 7.75147 18.3331 7.56625 18.6624 7.56348C18.9169 7.56348 19.1713 7.56348 19.4258 7.56348L19.4272 7.56625Z" fill="#004278"/>
<path d="M24.5707 7.56672C24.8294 7.56672 25.0881 7.56672 25.3459 7.56672C25.6596 7.5695 25.8487 7.75703 25.8496 8.06681C25.8496 8.56412 25.8496 9.06127 25.8496 9.55827C25.8496 9.87777 25.6587 10.0736 25.3322 10.0769C24.8233 10.0815 24.3139 10.0824 23.8054 10.0769C23.4851 10.0732 23.2983 9.87916 23.2979 9.56429C23.2979 9.0676 23.2979 8.57044 23.2979 8.07283C23.2979 7.74869 23.486 7.56718 23.8181 7.56348C24.0688 7.56348 24.319 7.56348 24.5707 7.56348V7.56672Z" fill="#004278"/>
<path d="M19.4134 6.26764C19.1509 6.26764 18.8885 6.27042 18.626 6.26764C18.3438 6.26393 18.1486 6.07223 18.1472 5.79116C18.145 5.27379 18.145 4.75688 18.1472 4.24043C18.1472 3.97279 18.3391 3.77368 18.6095 3.76997C19.1502 3.76287 19.6909 3.76287 20.2319 3.76997C20.294 3.76924 20.3556 3.78094 20.413 3.80435C20.4704 3.82776 20.5224 3.8624 20.5658 3.90617C20.6092 3.94994 20.6432 4.00193 20.6656 4.05899C20.688 4.11604 20.6983 4.17698 20.6961 4.23811C20.6999 4.75919 20.6999 5.27996 20.6961 5.80043C20.6961 6.07825 20.5033 6.26347 20.2257 6.26903C19.9557 6.27273 19.6853 6.26903 19.4148 6.26903L19.4134 6.26764Z" fill="#004278"/>
<path d="M24.5707 6.26749C24.3083 6.26749 24.0453 6.25961 23.7833 6.26749C23.7197 6.26873 23.6564 6.25738 23.5973 6.23412C23.5382 6.21086 23.4845 6.17616 23.4393 6.13207C23.394 6.08798 23.3583 6.03541 23.3341 5.97746C23.3099 5.91951 23.2977 5.85737 23.2984 5.79472C23.3012 5.27425 23.2984 4.75333 23.3007 4.2324C23.3007 3.9643 23.4926 3.76936 23.7659 3.76658C24.3025 3.7601 24.8393 3.7601 25.3765 3.76658C25.4396 3.76554 25.5023 3.77714 25.5607 3.80068C25.6191 3.82422 25.672 3.85921 25.7163 3.90351C25.7606 3.94781 25.7952 4.00051 25.8181 4.05841C25.8411 4.1163 25.8518 4.17817 25.8497 4.24028C25.8525 4.76074 25.8525 5.28151 25.8497 5.80259C25.8497 6.07069 25.6535 6.25869 25.3831 6.26563H24.5707V6.26749Z" fill="#004278"/>
</svg>
