<svg width="20" height="21" viewBox="0 0 20 21" fill="none" xmlns="http://www.w3.org/2000/svg">
<path d="M19.9974 10.0124C19.9974 12.5991 19.9927 15.1836 20 17.7719C20 18.6212 19.6722 19.2903 18.9329 19.6999C18.6147 19.878 18.2581 19.9764 17.8935 19.9866C12.6304 20.0044 7.36609 20.0077 2.10053 19.9966C0.980117 19.9966 0.0301421 19.0845 0.0217769 17.9646C0.0029552 15.3085 0.0123661 12.6523 0.0118432 9.9962C0.0118432 7.4367 0.0405987 4.87458 0.000341069 2.31769C-0.0210948 0.972119 0.970183 -0.00623823 2.32483 2.99476e-05C7.47623 0.024058 12.6266 0.00995456 17.7759 0.0115216C18.797 0.0115216 19.5472 0.514543 19.8803 1.45947C19.9728 1.72064 19.9906 2.02204 19.9911 2.30515C20.001 4.87406 19.9974 7.44349 19.9974 10.0124ZM1.40779 9.98576C1.40779 12.5463 1.40779 15.1067 1.40779 17.6669C1.40779 18.3433 1.6645 18.6035 2.3358 18.6035C7.45148 18.6035 12.5675 18.6035 17.6839 18.6035C18.3353 18.6035 18.6004 18.335 18.6009 17.6794C18.6009 12.5583 18.6009 7.43757 18.6009 2.31717C18.6009 1.67781 18.3358 1.41194 17.6985 1.41194C12.5748 1.41194 7.45009 1.41194 2.3243 1.41194C1.67286 1.41298 1.41145 1.67468 1.41145 2.33127C1.40866 4.88311 1.40744 7.43461 1.40779 9.98576Z" fill="white"/>
<path d="M6.44451 10.0109C6.44451 8.2784 6.44451 6.54594 6.44451 4.81349C6.44451 4.38673 6.5428 4.29114 6.96733 4.29114C8.2744 4.29114 9.58147 4.26607 10.8885 4.30002C12.5945 4.34442 13.9209 5.07989 14.6607 6.65059C15.7325 8.92593 14.1933 11.7403 11.7005 12.0511C10.8504 12.1556 9.97986 12.1034 9.11824 12.1185C8.7784 12.1248 8.43857 12.1269 8.09925 12.1149C7.90476 12.1081 7.84307 12.177 7.84464 12.3703C7.85248 13.2933 7.84882 14.2163 7.84777 15.1387C7.84777 15.601 7.74321 15.7044 7.27842 15.7091C6.45862 15.7175 6.44189 15.6997 6.44189 14.8911V10.0109H6.44451ZM7.84934 8.20144C7.84934 8.94996 7.85614 9.69849 7.84516 10.4475C7.8415 10.6617 7.90476 10.7322 8.12383 10.7301C9.10778 10.7197 10.0917 10.7301 11.0757 10.7244C12.4722 10.7145 13.5994 9.59454 13.601 8.22442C13.6025 6.8543 12.4816 5.71715 11.0914 5.69887C10.098 5.68581 9.10465 5.69887 8.11128 5.69208C7.91051 5.69208 7.83679 5.74745 7.83993 5.95795C7.85614 6.70491 7.84934 7.45344 7.84934 8.20144Z" fill="white"/>
</svg>
