<svg width="33" height="29" viewBox="0 0 33 29" fill="none" xmlns="http://www.w3.org/2000/svg">
<path d="M14.628 14.4976C14.628 17.5959 14.628 20.6941 14.628 23.7924C14.628 24.1602 14.6139 24.5227 14.3718 24.8341C14.164 25.1059 13.8595 25.2893 13.5201 25.347C13.1808 25.4047 12.8319 25.3324 12.5444 25.1448C12.3976 25.044 12.2614 24.9287 12.1379 24.8009C10.5789 23.2611 9.0228 21.7186 7.46961 20.1734C7.38803 20.0857 7.28791 20.0168 7.17637 19.9717C7.06482 19.9266 6.94461 19.9064 6.82428 19.9125C5.08013 19.9231 3.33598 19.8919 1.59183 19.9284C0.590953 19.949 -0.0181581 19.3256 -0.00339988 18.3636C0.028129 15.7856 0.00733336 13.2076 0.00800419 10.6289C0.00800419 9.57859 0.498379 9.09193 1.56969 9.08994C3.32457 9.08994 5.07946 9.0853 6.83434 9.09592C6.95508 9.101 7.07548 9.07987 7.18708 9.03399C7.29868 8.98811 7.39878 8.9186 7.48035 8.83035C9.03756 7.27368 10.6004 5.72232 12.1688 4.17627C12.7376 3.61327 13.3179 3.49045 13.9243 3.80979C14.3235 4.01959 14.5676 4.34956 14.6032 4.80567C14.6186 5.00485 14.624 5.20402 14.624 5.4032C14.6276 8.43465 14.6289 11.4661 14.628 14.4976ZM12.8376 6.02529C12.6799 6.17069 12.5894 6.2497 12.5022 6.33335C11.139 7.67646 9.76653 9.01094 8.41951 10.37C8.09885 10.6933 7.78088 10.838 7.31465 10.8301C5.60404 10.8015 3.89343 10.8301 2.18215 10.8115C1.85412 10.8115 1.77094 10.9104 1.77295 11.2258C1.7857 13.4061 1.77899 15.5871 1.77966 17.768C1.77966 17.8855 1.78905 18.0037 1.79576 18.1551H2.22106C3.96521 18.1551 5.70936 18.1624 7.45351 18.1465C7.78893 18.1465 8.03043 18.2308 8.27192 18.4738C9.67462 19.8873 11.0961 21.2822 12.5122 22.6824C12.6001 22.7693 12.694 22.851 12.8356 22.9811L12.8376 6.02529Z" fill="#004278"/>
<path d="M33 14.4571C32.9141 18.5455 31.5959 22.0968 28.9408 25.1548C27.6119 26.6851 26.018 27.8769 24.245 28.8548C23.7459 29.1297 23.22 29.0055 22.9617 28.564C22.6934 28.1086 22.8557 27.6 23.3911 27.3145C24.9189 26.498 26.2939 25.4282 27.4563 24.1516C29.0964 22.363 30.2268 20.2949 30.7769 17.9466C31.8589 13.3258 30.8942 9.12912 27.9393 5.40188C26.766 3.91735 25.2902 2.75085 23.6245 1.8207C23.3455 1.66817 23.107 1.45222 22.9289 1.19064C22.7222 0.868636 22.8557 0.479579 23.1569 0.2087C23.2984 0.0883002 23.4751 0.0159759 23.6612 0.0023528C23.8473 -0.0112704 24.0329 0.0345258 24.1907 0.133013C24.8877 0.544643 25.5947 0.955609 26.2548 1.42633C28.592 3.09144 30.3388 5.24519 31.5288 7.83846C32.2989 9.49909 32.7695 11.2802 32.9195 13.1014C32.955 13.5747 32.9752 14.0501 33 14.4571Z" fill="#004278"/>
<path d="M27.4737 14.4862C27.424 17.699 26.2273 20.3951 23.7586 22.5084C23.389 22.8244 22.9624 23.078 22.5511 23.3396C22.0185 23.6756 21.4912 23.5873 21.2095 23.1404C20.9277 22.6936 21.0639 22.1751 21.6147 21.8544C22.5994 21.2888 23.3997 20.5233 24.0572 19.6183C24.9963 18.325 25.5048 16.8697 25.6457 15.281C25.8161 13.3682 25.3995 11.5909 24.4275 9.94039C23.8273 8.92445 23.0014 8.05695 22.0125 7.40355C21.8555 7.29799 21.6945 7.1984 21.5362 7.0935C21.0438 6.76818 20.9324 6.30211 21.2283 5.84201C21.4966 5.43038 22.0245 5.33876 22.4995 5.62026C23.6275 6.28275 24.6105 7.16147 25.3908 8.2049C26.5889 9.80893 27.2778 11.6009 27.4254 13.5933C27.4368 13.748 27.4643 13.9007 27.4737 14.058C27.4804 14.1988 27.4737 14.3408 27.4737 14.4862Z" fill="#004278"/>
<path d="M21.9742 14.468C21.9071 16.1663 21.0532 17.2923 19.6122 18.0233C19.2003 18.2324 18.718 18.0618 18.4866 17.6628C18.3758 17.4681 18.3442 17.2389 18.3982 17.022C18.4521 16.805 18.5876 16.6165 18.777 16.495C18.9353 16.3927 19.1124 16.3164 19.2627 16.2042C20.6325 15.1877 20.4762 13.4608 18.9307 12.5958C18.5758 12.3966 18.3685 12.141 18.3846 11.7267C18.3909 11.5915 18.4294 11.4598 18.4969 11.3421C18.5644 11.2245 18.659 11.1243 18.773 11.0497C18.887 10.9751 19.0172 10.9282 19.153 10.9128C19.2889 10.8974 19.4264 10.914 19.5545 10.9612C20.9297 11.4817 21.9984 13.0525 21.9742 14.468Z" fill="#004278"/>
</svg>
