<svg width="39" height="29" viewBox="0 0 39 29" fill="none" xmlns="http://www.w3.org/2000/svg">
<path d="M19.3525 14.5434C19.3525 18.7054 19.3401 22.8675 19.3579 27.0295C19.3649 28.8076 17.6683 29.3638 16.695 28.7731C16.4468 28.614 16.2185 28.4258 16.015 28.2126C13.9965 26.2018 11.9843 24.1854 9.97824 22.1634C9.84758 22.017 9.68612 21.9014 9.50544 21.8249C9.32476 21.7483 9.12937 21.7127 8.93331 21.7207C6.64596 21.7393 4.35773 21.7322 2.07039 21.7278C0.711972 21.7278 0.0106265 21.0424 0.0070843 19.691C-0.00236143 16.2362 -0.00236143 12.7827 0.0070843 9.33023C0.0070843 7.93728 0.725256 7.24922 2.17842 7.24125C4.46665 7.22885 6.75429 7.22885 9.04134 7.24125C9.20818 7.24919 9.37473 7.2203 9.52915 7.15663C9.68357 7.09297 9.82208 6.99608 9.93485 6.87287C12.0011 4.78654 14.0771 2.70877 16.1628 0.639566C16.8775 -0.0688644 17.7568 -0.194611 18.5334 0.29155C19.1843 0.700668 19.3561 1.33826 19.357 2.04934C19.357 5.41439 19.357 8.77943 19.357 12.1445L19.3525 14.5434ZM16.9448 25.7729V3.23508C16.7677 3.39625 16.6605 3.49188 16.5578 3.58929C14.6686 5.47844 12.7795 7.36759 10.8903 9.25673C10.7876 9.36926 10.6615 9.4581 10.521 9.51712C10.3805 9.57614 10.2288 9.60393 10.0765 9.59855C7.68558 9.58704 5.29463 9.59855 2.90368 9.58438C2.47242 9.58438 2.35199 9.72341 2.35465 10.1432C2.3697 13.0212 2.36173 15.8992 2.3635 18.7763C2.3635 19.3536 2.3635 19.3554 2.96301 19.3554C5.3088 19.3554 7.65636 19.3643 10.0004 19.3554C10.1597 19.3477 10.3188 19.375 10.4665 19.4354C10.6141 19.4959 10.7467 19.588 10.8549 19.7052C12.7441 21.6138 14.6412 23.5145 16.5463 25.4072C16.6614 25.517 16.7783 25.6188 16.9448 25.7729Z" fill="#004278"/>
<path d="M32.749 12.8445C33.3688 12.1998 33.9462 11.5897 34.536 10.9911C35.2497 10.2661 35.9697 9.54617 36.6958 8.83124C37.1634 8.36988 37.383 8.36899 37.8585 8.80113C38.0356 8.95964 38.2127 9.11904 38.3739 9.28641C38.8282 9.74512 38.8308 10.0356 38.3801 10.4872C37.1805 11.688 35.9788 12.8867 34.7751 14.0834C34.3704 14.4872 34.3713 14.4881 34.7804 14.9016C35.9741 16.1077 37.1669 17.3144 38.3588 18.5217C38.8016 18.9645 38.8016 19.2399 38.3712 19.6888C38.218 19.8482 38.0622 20.005 37.9046 20.1617C37.4396 20.6248 37.1687 20.631 36.71 20.1741C35.4974 18.9656 34.2871 17.7554 33.0793 16.5434C32.9659 16.43 32.8473 16.322 32.7056 16.1892C32.5727 16.3149 32.4541 16.4212 32.3416 16.5328C31.1302 17.743 29.92 18.9532 28.7109 20.1635C28.2469 20.6266 27.975 20.6266 27.5145 20.1759C27.3374 19.9988 27.1603 19.8217 26.9832 19.6445C26.5732 19.2177 26.5652 18.9804 26.9832 18.5518C27.7997 17.7203 28.6285 16.9003 29.453 16.0723C29.8701 15.6543 30.2739 15.2222 30.7096 14.8254C30.9814 14.5775 30.9752 14.4128 30.7096 14.1533C29.4857 12.957 28.2796 11.742 27.0682 10.5324C26.5369 10.001 26.5369 9.77788 27.0682 9.24833C27.1931 9.12347 27.3233 9.00304 27.4543 8.88349C28.053 8.33623 28.2221 8.34154 28.8101 8.92865C29.979 10.0976 31.1479 11.2662 32.3168 12.4345C32.4319 12.5452 32.5506 12.6523 32.749 12.8445Z" fill="#004278"/>
</svg>
